<svg width="1515" height="261" viewBox="0 0 1515 261" fill="none" xmlns="http://www.w3.org/2000/svg">
<path d="M345.766 226.945C345.75 227.93 345.711 228.797 345.648 229.547C345.602 230.281 345.516 230.977 345.391 231.633C345.266 232.289 345.133 232.844 344.992 233.297C344.852 233.75 344.625 234.18 344.312 234.586C344.016 234.977 343.727 235.297 343.445 235.547C343.164 235.781 342.758 236 342.227 236.203C341.711 236.391 341.211 236.531 340.727 236.625C340.242 236.719 339.594 236.797 338.781 236.859C337.984 236.922 337.211 236.961 336.461 236.977C335.727 236.992 334.797 237 333.672 237H321.156V202.078H334.422C336.188 202.078 337.648 202.172 338.805 202.359C339.977 202.531 341.008 202.852 341.898 203.32C342.805 203.789 343.461 204.453 343.867 205.312C344.273 206.172 344.484 207.266 344.5 208.594L344.523 211.125C344.523 212.188 344.484 213.055 344.406 213.727C344.328 214.398 344.188 215.008 343.984 215.555C343.797 216.102 343.508 216.531 343.117 216.844C342.727 217.156 342.25 217.422 341.688 217.641C341.141 217.844 340.43 218.023 339.555 218.18C340.617 218.289 341.531 218.523 342.297 218.883C343.062 219.242 343.664 219.672 344.102 220.172C344.555 220.672 344.906 221.305 345.156 222.07C345.406 222.836 345.57 223.586 345.648 224.32C345.727 225.055 345.766 225.93 345.766 226.945ZM339.883 210.117C339.883 210.086 339.883 210.039 339.883 209.977C339.883 209.32 339.883 208.859 339.883 208.594C339.883 208.312 339.836 207.977 339.742 207.586C339.664 207.18 339.578 206.914 339.484 206.789C339.406 206.664 339.211 206.5 338.898 206.297C338.602 206.078 338.305 205.953 338.008 205.922C337.711 205.875 337.242 205.82 336.602 205.758C335.977 205.68 335.352 205.641 334.727 205.641C334.102 205.641 333.25 205.641 332.172 205.641H325.867V216.844H330.578C332.625 216.844 334.281 216.789 335.547 216.68C336.812 216.555 337.75 216.352 338.359 216.07C338.984 215.773 339.391 215.461 339.578 215.133C339.781 214.805 339.883 214.367 339.883 213.82V210.117ZM341.125 225.82C341.094 223.961 341.023 222.789 340.914 222.305C340.695 221.445 340.156 220.859 339.297 220.547C338.234 220.141 335.859 219.93 332.172 219.914C331.922 219.914 331.648 219.914 331.352 219.914H325.867V233.461H334.82C336.633 233.461 338 233.312 338.922 233.016C339.844 232.703 340.453 232.242 340.75 231.633C341.047 231.023 341.188 230.125 341.172 228.938L341.125 225.82ZM373.656 202.078L363.086 224.859V237H358.352V224.859L348.086 202.078H353.266L360.883 219.961L368.641 202.078H373.656ZM423.156 201C423.732 202.984 424.292 204.984 424.836 207C425.412 208.984 425.972 210.984 426.516 213C427.092 214.984 427.668 216.984 428.244 219C428.82 220.984 429.38 222.984 429.924 225C430.5 226.984 431.06 228.984 431.604 231C432.18 232.984 432.756 234.984 433.332 237H411.924L411.108 232.296C410.98 232.296 410.868 232.296 410.772 232.296C410.676 232.296 410.564 232.296 410.436 232.296H405.156C405.06 232.296 404.964 232.296 404.868 232.296C404.772 232.296 404.676 232.296 404.58 232.296L403.764 237H383.268C383.844 234.984 384.404 232.984 384.948 231C385.524 228.984 386.084 226.984 386.628 225C387.204 222.984 387.764 220.984 388.308 219C388.884 216.984 389.444 214.984 389.988 213C390.564 210.984 391.124 208.984 391.668 207C392.244 204.984 392.804 202.984 393.348 201H423.156ZM405.156 228.888C405.156 228.92 405.156 228.936 405.156 228.936C405.156 228.936 405.172 228.936 405.204 228.936H410.484C410.516 228.936 410.532 228.936 410.532 228.936C410.532 228.904 410.532 228.888 410.532 228.888C410.532 228.888 410.468 228.504 410.34 227.736C410.212 226.936 410.036 225.944 409.812 224.76C409.62 223.544 409.412 222.264 409.188 220.92C408.964 219.544 408.756 218.248 408.564 217.032C408.372 215.816 408.196 214.824 408.036 214.056C407.908 213.288 407.844 212.904 407.844 212.904C407.844 212.904 407.828 212.904 407.796 212.904C407.796 212.904 407.732 213.288 407.604 214.056C407.476 214.824 407.3 215.816 407.076 217.032C406.884 218.248 406.676 219.544 406.452 220.92C406.228 222.264 406.02 223.544 405.828 224.76C405.636 225.944 405.476 226.936 405.348 227.736C405.22 228.504 405.156 228.888 405.156 228.888ZM457.959 199.56C463.655 199.56 468.359 200.264 472.071 201.672C475.783 203.08 478.631 205 480.615 207.432C482.599 209.832 483.847 212.552 484.359 215.592L463.623 220.488C463.975 219.272 463.991 218.216 463.671 217.32C463.351 216.424 462.711 215.72 461.751 215.208C460.791 214.696 459.511 214.44 457.911 214.44C456.407 214.44 455.207 214.648 454.311 215.064C453.447 215.48 452.823 216.008 452.439 216.648C452.087 217.256 451.911 217.912 451.911 218.616C451.911 219.128 452.023 219.624 452.247 220.104C452.471 220.552 452.823 220.968 453.303 221.352C453.783 221.736 454.407 222.04 455.175 222.264C455.943 222.488 456.855 222.6 457.911 222.6C459.543 222.6 460.807 222.424 461.703 222.072C462.599 221.688 463.239 221.16 463.623 220.488C463.111 222.376 462.599 224.28 462.087 226.2C461.575 228.12 461.047 230.056 460.503 232.008C459.991 233.928 459.479 235.832 458.967 237.72C458.103 237.88 457.255 237.992 456.423 238.056C455.623 238.152 454.663 238.2 453.543 238.2C451.111 238.2 448.871 237.976 446.823 237.528C444.807 237.08 442.983 236.456 441.351 235.656C439.719 234.824 438.279 233.832 437.031 232.68C435.815 231.528 434.791 230.248 433.959 228.84C433.159 227.4 432.551 225.864 432.135 224.232C431.719 222.568 431.511 220.84 431.511 219.048C431.511 217.576 431.655 216.152 431.943 214.776C432.263 213.368 432.743 212.024 433.383 210.744C434.055 209.432 434.903 208.216 435.927 207.096C436.951 205.944 438.151 204.92 439.527 204.024C440.935 203.096 442.551 202.296 444.375 201.624C446.199 200.952 448.231 200.44 450.471 200.088C452.743 199.736 455.239 199.56 457.959 199.56ZM463.623 237C463.623 235.144 463.623 233.304 463.623 231.48C463.623 229.656 463.623 227.832 463.623 226.008C463.623 224.152 463.623 222.312 463.623 220.488C465.895 220.488 468.151 220.488 470.391 220.488C472.663 220.488 474.935 220.488 477.207 220.488C479.479 220.488 481.735 220.488 483.975 220.488V237H463.623ZM514.547 201H533.027C533.027 202.184 533.027 203.384 533.027 204.6C533.027 205.784 533.027 206.984 533.027 208.2C533.027 209.384 533.027 210.584 533.027 211.8C533.027 212.984 533.027 214.184 533.027 215.4C533.027 216.584 533.027 217.784 533.027 219C533.027 222.008 533.027 225.016 533.027 228.024C533.027 231 533.027 233.992 533.027 237H510.803L504.755 219.72C504.755 219.688 504.739 219.672 504.707 219.672C504.707 219.672 504.691 219.672 504.659 219.672C504.659 219.672 504.659 219.688 504.659 219.72C504.659 222.536 504.659 225.416 504.659 228.36C504.659 231.304 504.659 234.184 504.659 237H486.179C486.179 234.6 486.179 232.2 486.179 229.8C486.179 227.4 486.179 225 486.179 222.6C486.179 220.2 486.179 217.8 486.179 215.4C486.179 213 486.179 210.6 486.179 208.2C486.179 205.8 486.179 203.4 486.179 201H507.683L514.451 220.92C514.483 220.92 514.499 220.92 514.499 220.92C514.531 220.92 514.547 220.92 514.547 220.92C514.547 220.888 514.547 220.872 514.547 220.872V201ZM575.297 213.096H554.417C554.385 213.096 554.369 213.096 554.369 213.096V215.736C554.369 215.768 554.369 215.8 554.369 215.832C554.401 215.832 554.417 215.832 554.417 215.832H574.577V222.6H554.417C554.417 222.6 554.401 222.6 554.369 222.6C554.369 222.6 554.369 222.616 554.369 222.648C554.369 222.648 554.369 222.664 554.369 222.696V225.384C554.401 225.384 554.417 225.384 554.417 225.384H575.585V237H534.929C534.929 235.112 534.929 233.224 534.929 231.336C534.929 229.416 534.929 227.512 534.929 225.624C534.929 223.736 534.929 221.848 534.929 219.96C534.929 218.04 534.929 216.136 534.929 214.248C534.929 212.328 534.929 210.424 534.929 208.536C534.929 207.288 534.929 206.04 534.929 204.792C534.929 203.512 534.929 202.248 534.929 201H575.297V213.096ZM620.31 201V215.592H608.742C608.742 215.592 608.726 215.608 608.694 215.64C608.694 215.64 608.678 215.64 608.646 215.64C608.646 215.64 608.646 215.656 608.646 215.688C608.646 217.096 608.646 218.52 608.646 219.96C608.646 221.368 608.646 222.792 608.646 224.232C608.646 225.64 608.646 227.064 608.646 228.504C608.646 229.912 608.646 231.336 608.646 232.776C608.646 234.184 608.646 235.592 608.646 237H588.726C588.726 234.632 588.726 232.264 588.726 229.896C588.726 227.528 588.726 225.16 588.726 222.792C588.726 220.424 588.726 218.056 588.726 215.688C588.726 215.656 588.71 215.64 588.678 215.64C588.678 215.608 588.662 215.592 588.63 215.592H577.062V201H620.31ZM648.522 201H668.442C668.442 203.016 668.442 205.032 668.442 207.048C668.442 209.064 668.442 211.08 668.442 213.096C668.442 215.112 668.442 217.144 668.442 219.192C668.442 222.136 668.442 225.096 668.442 228.072C668.442 231.048 668.442 234.024 668.442 237H648.522C648.522 235.048 648.522 233.096 648.522 231.144C648.522 229.192 648.522 227.24 648.522 225.288C648.522 225.256 648.506 225.24 648.474 225.24C648.474 225.208 648.458 225.192 648.426 225.192H641.85C641.818 225.192 641.802 225.208 641.802 225.24C641.802 225.24 641.802 225.256 641.802 225.288C641.802 227.24 641.802 229.192 641.802 231.144C641.802 233.096 641.802 235.048 641.802 237H621.882C621.882 235.08 621.882 233.16 621.882 231.24C621.882 229.32 621.882 227.4 621.882 225.48C621.882 223.56 621.882 221.64 621.882 219.72C621.882 217.8 621.882 215.88 621.882 213.96C621.882 212.04 621.882 210.12 621.882 208.2C621.882 206.984 621.882 205.784 621.882 204.6C621.882 203.384 621.882 202.184 621.882 201H641.802C641.802 202.536 641.802 204.088 641.802 205.656C641.802 207.224 641.802 208.792 641.802 210.36C641.802 211.896 641.802 213.448 641.802 215.016C641.802 215.048 641.802 215.08 641.802 215.112C641.802 215.112 641.818 215.112 641.85 215.112H648.426C648.458 215.112 648.474 215.112 648.474 215.112C648.506 215.08 648.522 215.048 648.522 215.016C648.522 212.68 648.522 210.344 648.522 208.008C648.522 205.672 648.522 203.336 648.522 201ZM710.719 213.096H689.839C689.807 213.096 689.791 213.096 689.791 213.096V215.736C689.791 215.768 689.791 215.8 689.791 215.832C689.823 215.832 689.839 215.832 689.839 215.832H709.999V222.6H689.839C689.839 222.6 689.823 222.6 689.791 222.6C689.791 222.6 689.791 222.616 689.791 222.648C689.791 222.648 689.791 222.664 689.791 222.696V225.384C689.823 225.384 689.839 225.384 689.839 225.384H711.007V237H670.351C670.351 235.112 670.351 233.224 670.351 231.336C670.351 229.416 670.351 227.512 670.351 225.624C670.351 223.736 670.351 221.848 670.351 219.96C670.351 218.04 670.351 216.136 670.351 214.248C670.351 212.328 670.351 210.424 670.351 208.536C670.351 207.288 670.351 206.04 670.351 204.792C670.351 203.512 670.351 202.248 670.351 201H710.719V213.096ZM722.429 201H760.205C762.349 201 764.125 201.416 765.533 202.248C766.941 203.048 767.997 204.088 768.701 205.368C769.437 206.648 769.805 207.992 769.805 209.4C769.805 210.808 769.437 212.184 768.701 213.528C767.965 214.84 766.845 215.912 765.341 216.744C763.869 217.576 762.013 217.992 759.773 217.992C759.773 217.992 759.757 217.992 759.725 217.992C759.725 217.992 759.725 218.008 759.725 218.04C759.757 218.04 759.773 218.04 759.773 218.04C762.365 218.04 764.509 218.504 766.205 219.432C767.901 220.36 769.165 221.544 769.997 222.984C770.829 224.424 771.245 225.944 771.245 227.544C771.245 228.728 771.005 229.88 770.525 231C770.077 232.12 769.389 233.144 768.461 234.072C767.533 234.968 766.381 235.688 765.005 236.232C763.629 236.744 762.029 237 760.205 237H722.429C722.429 234.824 722.429 232.664 722.429 230.52C722.429 228.344 722.429 226.168 722.429 223.992C722.429 221.816 722.429 219.656 722.429 217.512C722.429 215.336 722.429 213.16 722.429 210.984C722.429 209.32 722.429 207.656 722.429 205.992C722.429 204.328 722.429 202.664 722.429 201ZM741.341 219.912C741.341 220.264 741.341 220.616 741.341 220.968C741.341 221.32 741.341 221.672 741.341 222.024C741.341 222.28 741.341 222.536 741.341 222.792C741.341 223.016 741.341 223.24 741.341 223.464C741.341 223.688 741.341 223.912 741.341 224.136C741.341 224.168 741.341 224.184 741.341 224.184C741.341 224.184 741.357 224.184 741.389 224.184H748.205C749.069 224.184 749.709 223.96 750.125 223.512C750.573 223.064 750.797 222.552 750.797 221.976C750.797 221.688 750.749 221.432 750.653 221.208C750.557 220.952 750.413 220.728 750.221 220.536C750.061 220.312 749.837 220.152 749.549 220.056C749.293 219.928 748.989 219.864 748.637 219.864H741.389C741.389 219.864 741.373 219.88 741.341 219.912ZM741.389 213.144C741.357 213.144 741.341 213.16 741.341 213.192C741.341 213.384 741.341 213.608 741.341 213.864C741.341 214.088 741.341 214.328 741.341 214.584C741.341 214.808 741.341 215.048 741.341 215.304C741.341 215.656 741.341 216.024 741.341 216.408C741.341 216.76 741.341 217.096 741.341 217.416C741.341 217.448 741.341 217.464 741.341 217.464C741.341 217.464 741.357 217.464 741.389 217.464H747.965C748.541 217.464 749.021 217.368 749.405 217.176C749.789 216.952 750.077 216.68 750.269 216.36C750.461 216.008 750.557 215.64 750.557 215.256C750.557 214.712 750.365 214.232 749.981 213.816C749.629 213.368 749.101 213.144 748.397 213.144H741.389ZM813 213.096H792.12C792.088 213.096 792.072 213.096 792.072 213.096V215.736C792.072 215.768 792.072 215.8 792.072 215.832C792.104 215.832 792.12 215.832 792.12 215.832H812.28V222.6H792.12C792.12 222.6 792.104 222.6 792.072 222.6C792.072 222.6 792.072 222.616 792.072 222.648C792.072 222.648 792.072 222.664 792.072 222.696V225.384C792.104 225.384 792.12 225.384 792.12 225.384H813.288V237H772.632C772.632 235.112 772.632 233.224 772.632 231.336C772.632 229.416 772.632 227.512 772.632 225.624C772.632 223.736 772.632 221.848 772.632 219.96C772.632 218.04 772.632 216.136 772.632 214.248C772.632 212.328 772.632 210.424 772.632 208.536C772.632 207.288 772.632 206.04 772.632 204.792C772.632 203.512 772.632 202.248 772.632 201H813V213.096ZM814.813 220.344C815.261 220.6 815.725 220.84 816.205 221.064C816.685 221.256 817.181 221.4 817.693 221.496C818.205 221.592 818.685 221.64 819.133 221.64C820.125 221.64 820.957 221.4 821.629 220.92C822.333 220.44 822.685 219.688 822.685 218.664C822.685 218.408 822.685 217.848 822.685 216.984C822.685 216.12 822.685 215.064 822.685 213.816C822.685 212.568 822.685 211.256 822.685 209.88C822.685 208.504 822.685 207.192 822.685 205.944C822.685 204.696 822.685 203.624 822.685 202.728C822.685 201.832 822.685 201.256 822.685 201H842.605C842.605 202.248 842.605 203.88 842.605 205.896C842.605 207.912 842.605 209.976 842.605 212.088C842.605 213.112 842.605 214.12 842.605 215.112C842.605 216.104 842.605 217.048 842.605 217.944C842.605 218.808 842.605 219.608 842.605 220.344C842.605 221.048 842.605 221.64 842.605 222.12C842.605 222.568 842.605 222.872 842.605 223.032C842.605 225.816 842.141 228.168 841.213 230.088C840.285 231.976 839.037 233.496 837.469 234.648C835.901 235.8 834.141 236.632 832.189 237.144C830.237 237.656 828.237 237.912 826.189 237.912C824.013 237.912 821.965 237.72 820.045 237.336C818.125 236.952 816.381 236.296 814.813 235.368V220.344ZM873.146 201C876.154 201 878.81 201.336 881.114 202.008C883.45 202.648 885.45 203.544 887.114 204.696C888.778 205.848 890.138 207.192 891.194 208.728C892.25 210.232 893.034 211.848 893.546 213.576C894.058 215.304 894.314 217.064 894.314 218.856C894.314 221.128 893.898 223.352 893.066 225.528C892.266 227.672 891.002 229.608 889.274 231.336C887.578 233.064 885.386 234.44 882.698 235.464C880.042 236.488 876.858 237 873.146 237H844.538C844.538 234.952 844.538 232.92 844.538 230.904C844.538 228.856 844.538 226.824 844.538 224.808C844.538 222.76 844.538 220.728 844.538 218.712C844.538 216.664 844.538 214.616 844.538 212.568C844.538 210.648 844.538 208.728 844.538 206.808C844.538 204.856 844.538 202.92 844.538 201H873.146ZM869.306 214.824H863.594C863.594 214.824 863.578 214.824 863.546 214.824C863.546 214.824 863.546 214.84 863.546 214.872C863.546 214.872 863.546 214.888 863.546 214.92V223.08C863.546 223.112 863.546 223.144 863.546 223.176C863.578 223.176 863.594 223.176 863.594 223.176H869.402C870.106 223.176 870.73 223.064 871.274 222.84C871.85 222.616 872.33 222.312 872.714 221.928C873.098 221.544 873.386 221.096 873.578 220.584C873.802 220.072 873.914 219.544 873.914 219C873.914 218.232 873.722 217.528 873.338 216.888C872.986 216.248 872.474 215.752 871.802 215.4C871.13 215.016 870.298 214.824 869.306 214.824ZM936.141 213.096H915.261C915.229 213.096 915.213 213.096 915.213 213.096V215.736C915.213 215.768 915.213 215.8 915.213 215.832C915.245 215.832 915.261 215.832 915.261 215.832H935.421V222.6H915.261C915.261 222.6 915.245 222.6 915.213 222.6C915.213 222.6 915.213 222.616 915.213 222.648C915.213 222.648 915.213 222.664 915.213 222.696V225.384C915.245 225.384 915.261 225.384 915.261 225.384H936.429V237H895.773C895.773 235.112 895.773 233.224 895.773 231.336C895.773 229.416 895.773 227.512 895.773 225.624C895.773 223.736 895.773 221.848 895.773 219.96C895.773 218.04 895.773 216.136 895.773 214.248C895.773 212.328 895.773 210.424 895.773 208.536C895.773 207.288 895.773 206.04 895.773 204.792C895.773 203.512 895.773 202.248 895.773 201H936.141V213.096ZM938.241 201H972.945C975.761 201 978.097 201.512 979.953 202.536C981.809 203.528 983.201 204.824 984.129 206.424C985.057 207.992 985.521 209.656 985.521 211.416C985.521 213.24 985.009 215.016 983.985 216.744C982.993 218.44 981.473 219.832 979.425 220.92C977.409 222.008 974.881 222.552 971.841 222.552C971.713 222.552 971.393 222.552 970.881 222.552C970.369 222.552 969.841 222.552 969.297 222.552C968.785 222.552 968.449 222.552 968.289 222.552C968.289 222.552 968.289 222.568 968.289 222.6C968.289 222.632 968.289 222.648 968.289 222.648C968.289 222.648 968.289 222.664 968.289 222.696C968.289 222.696 968.289 222.712 968.289 222.744H979.185L986.577 237H963.777C963.169 235.368 962.545 233.736 961.905 232.104C961.297 230.472 960.673 228.84 960.033 227.208C959.425 225.576 958.801 223.944 958.161 222.312H963.729C964.369 222.312 964.929 222.216 965.409 222.024C965.921 221.832 966.337 221.576 966.657 221.256C966.977 220.936 967.217 220.584 967.377 220.2C967.537 219.784 967.617 219.368 967.617 218.952C967.617 218.376 967.473 217.832 967.185 217.32C966.897 216.808 966.465 216.392 965.889 216.072C965.313 215.752 964.593 215.592 963.729 215.592H958.257C958.257 215.592 958.241 215.608 958.209 215.64C958.209 215.64 958.193 215.64 958.161 215.64C958.161 215.64 958.161 215.656 958.161 215.688C958.161 217.768 958.161 219.304 958.161 220.296C958.161 221.256 958.161 221.864 958.161 222.12C958.161 222.344 958.161 222.424 958.161 222.36C958.161 222.36 958.161 222.536 958.161 222.888C958.161 223.208 958.161 223.656 958.161 224.232C958.161 224.808 958.161 225.464 958.161 226.2C958.161 227.256 958.161 228.424 958.161 229.704C958.161 230.984 958.161 232.264 958.161 233.544C958.161 234.792 958.161 235.944 958.161 237H938.241C938.241 234.952 938.241 232.904 938.241 230.856C938.241 228.776 938.241 226.712 938.241 224.664C938.241 222.616 938.241 220.568 938.241 218.52C938.241 216.44 938.241 214.376 938.241 212.328C938.241 210.44 938.241 208.552 938.241 206.664C938.241 204.776 938.241 202.888 938.241 201Z" fill="#E43033"/>
<path d="M401.834 66C409.77 66 416.682 67.1093 422.57 69.328C428.543 71.4613 433.45 74.4053 437.29 78.16C441.215 81.8293 444.159 86.0107 446.122 90.704C448.085 95.3973 449.066 100.261 449.066 105.296C449.066 110.672 448.042 115.792 445.994 120.656C444.031 125.435 441.045 129.701 437.034 133.456C433.109 137.211 428.202 140.197 422.314 142.416C416.426 144.549 409.599 145.616 401.834 145.616H374.314C374.314 145.616 374.271 145.659 374.186 145.744C374.186 145.744 374.143 145.744 374.058 145.744C374.058 145.744 374.058 145.787 374.058 145.872V162H320.81C320.81 156.283 320.81 150.565 320.81 144.848C320.81 139.131 320.81 133.413 320.81 127.696C320.81 121.979 320.81 116.261 320.81 110.544C320.81 104.827 320.81 99.1093 320.81 93.392C320.81 88.784 320.81 84.2187 320.81 79.696C320.81 75.088 320.81 70.5227 320.81 66H401.834ZM386.09 117.84C388.65 117.84 390.783 117.413 392.49 116.56C394.282 115.621 395.605 114.469 396.458 113.104C397.311 111.653 397.738 110.203 397.738 108.752C397.738 107.216 397.311 105.808 396.458 104.528C395.605 103.163 394.325 102.053 392.618 101.2C390.911 100.347 388.735 99.92 386.09 99.92H374.314C374.229 99.92 374.143 99.9627 374.058 100.048C374.058 100.048 374.058 100.091 374.058 100.176V117.712C374.143 117.712 374.186 117.755 374.186 117.84C374.271 117.84 374.314 117.84 374.314 117.84H386.09ZM521.805 62.16C537.506 62.16 550.562 64.3787 560.973 68.816C571.384 73.2533 579.192 79.3547 584.397 87.12C589.602 94.8853 592.205 103.803 592.205 113.872C592.205 119.333 591.394 124.624 589.773 129.744C588.152 134.779 585.592 139.515 582.093 143.952C578.594 148.304 574.072 152.144 568.525 155.472C562.978 158.715 556.322 161.232 548.557 163.024C540.877 164.901 531.96 165.84 521.805 165.84C514.552 165.84 507.896 165.328 501.837 164.304C495.864 163.365 490.445 162.043 485.581 160.336C480.717 158.544 476.408 156.411 472.653 153.936C468.984 151.461 465.784 148.731 463.053 145.744C460.408 142.672 458.189 139.429 456.397 136.016C454.69 132.603 453.41 129.019 452.557 125.264C451.789 121.509 451.405 117.712 451.405 113.872C451.405 108.837 452.045 104.059 453.325 99.536C454.69 95.0133 456.653 90.832 459.213 86.992C461.858 83.152 465.101 79.7387 468.941 76.752C472.866 73.68 477.432 71.0773 482.637 68.944C487.842 66.7253 493.688 65.0613 500.173 63.952C506.744 62.7573 513.954 62.16 521.805 62.16ZM521.933 102.864C518.946 102.864 516.386 103.205 514.253 103.888C512.205 104.485 510.541 105.339 509.261 106.448C508.066 107.472 507.17 108.667 506.573 110.032C506.061 111.312 505.805 112.635 505.805 114C505.805 115.792 506.317 117.541 507.341 119.248C508.365 120.955 510.072 122.363 512.461 123.472C514.85 124.581 518.008 125.136 521.933 125.136C524.237 125.136 526.242 124.923 527.949 124.496C529.741 124.069 531.234 123.515 532.429 122.832C533.709 122.064 534.733 121.211 535.501 120.272C536.354 119.248 536.952 118.224 537.293 117.2C537.634 116.091 537.805 114.981 537.805 113.872C537.805 112.592 537.506 111.312 536.909 110.032C536.397 108.752 535.544 107.6 534.349 106.576C533.154 105.467 531.533 104.571 529.485 103.888C527.437 103.205 524.92 102.864 521.933 102.864ZM596.06 66H688.604C696.113 66 702.343 67.3653 707.292 70.096C712.241 72.7413 715.953 76.1973 718.428 80.464C720.903 84.6453 722.14 89.0827 722.14 93.776C722.14 98.64 720.775 103.376 718.044 107.984C715.399 112.507 711.345 116.219 705.884 119.12C700.508 122.021 693.767 123.472 685.66 123.472C685.319 123.472 684.465 123.472 683.1 123.472C681.735 123.472 680.327 123.472 678.876 123.472C677.511 123.472 676.615 123.472 676.188 123.472C676.188 123.472 676.188 123.515 676.188 123.6C676.188 123.685 676.188 123.728 676.188 123.728C676.188 123.728 676.188 123.771 676.188 123.856C676.188 123.856 676.188 123.899 676.188 123.984H705.244L724.956 162H664.156C662.535 157.648 660.871 153.296 659.164 148.944C657.543 144.592 655.879 140.24 654.172 135.888C652.551 131.536 650.887 127.184 649.18 122.832H664.028C665.735 122.832 667.228 122.576 668.508 122.064C669.873 121.552 670.983 120.869 671.836 120.016C672.689 119.163 673.329 118.224 673.756 117.2C674.183 116.091 674.396 114.981 674.396 113.872C674.396 112.336 674.012 110.885 673.244 109.52C672.476 108.155 671.324 107.045 669.788 106.192C668.252 105.339 666.332 104.912 664.028 104.912H649.436C649.436 104.912 649.393 104.955 649.308 105.04C649.308 105.04 649.265 105.04 649.18 105.04C649.18 105.04 649.18 105.083 649.18 105.168C649.18 110.715 649.18 114.811 649.18 117.456C649.18 120.016 649.18 121.637 649.18 122.32C649.18 122.917 649.18 123.131 649.18 122.96C649.18 122.96 649.18 123.429 649.18 124.368C649.18 125.221 649.18 126.416 649.18 127.952C649.18 129.488 649.18 131.237 649.18 133.2C649.18 136.016 649.18 139.131 649.18 142.544C649.18 145.957 649.18 149.371 649.18 152.784C649.18 156.112 649.18 159.184 649.18 162H596.06C596.06 156.539 596.06 151.077 596.06 145.616C596.06 140.069 596.06 134.565 596.06 129.104C596.06 123.643 596.06 118.181 596.06 112.72C596.06 107.173 596.06 101.669 596.06 96.208C596.06 91.1733 596.06 86.1387 596.06 81.104C596.06 76.0693 596.06 71.0347 596.06 66ZM841.367 66V104.912H810.519C810.519 104.912 810.476 104.955 810.391 105.04C810.391 105.04 810.348 105.04 810.263 105.04C810.263 105.04 810.263 105.083 810.263 105.168C810.263 108.923 810.263 112.72 810.263 116.56C810.263 120.315 810.263 124.112 810.263 127.952C810.263 131.707 810.263 135.504 810.263 139.344C810.263 143.099 810.263 146.896 810.263 150.736C810.263 154.491 810.263 158.245 810.263 162H757.143C757.143 155.685 757.143 149.371 757.143 143.056C757.143 136.741 757.143 130.427 757.143 124.112C757.143 117.797 757.143 111.483 757.143 105.168C757.143 105.083 757.1 105.04 757.015 105.04C757.015 104.955 756.972 104.912 756.887 104.912H726.039V66H841.367ZM953.208 103.632H898.808C898.808 103.632 898.808 103.675 898.808 103.76V111.184C898.808 111.269 898.808 111.312 898.808 111.312H951.288V141.776H898.808C898.808 141.776 898.808 141.819 898.808 141.904C898.808 144.805 898.808 147.237 898.808 149.2C898.808 151.077 898.808 152.955 898.808 154.832C898.808 156.709 898.808 159.099 898.808 162H845.56C845.56 155.941 845.56 149.883 845.56 143.824C845.56 137.765 845.56 131.749 845.56 125.776C845.56 119.717 845.56 113.659 845.56 107.6C845.56 101.541 845.56 95.4827 845.56 89.424C845.56 85.4987 845.56 81.616 845.56 77.776C845.56 73.8507 845.56 69.9253 845.56 66H953.208V103.632ZM1026.93 62.16C1042.63 62.16 1055.69 64.3787 1066.1 68.816C1076.51 73.2533 1084.32 79.3547 1089.52 87.12C1094.73 94.8853 1097.33 103.803 1097.33 113.872C1097.33 119.333 1096.52 124.624 1094.9 129.744C1093.28 134.779 1090.72 139.515 1087.22 143.952C1083.72 148.304 1079.2 152.144 1073.65 155.472C1068.1 158.715 1061.45 161.232 1053.68 163.024C1046 164.901 1037.08 165.84 1026.93 165.84C1019.68 165.84 1013.02 165.328 1006.96 164.304C1000.99 163.365 995.57 162.043 990.706 160.336C985.842 158.544 981.533 156.411 977.778 153.936C974.109 151.461 970.909 148.731 968.178 145.744C965.533 142.672 963.314 139.429 961.522 136.016C959.815 132.603 958.535 129.019 957.682 125.264C956.914 121.509 956.53 117.712 956.53 113.872C956.53 108.837 957.17 104.059 958.45 99.536C959.815 95.0133 961.778 90.832 964.338 86.992C966.983 83.152 970.226 79.7387 974.066 76.752C977.991 73.68 982.557 71.0773 987.762 68.944C992.967 66.7253 998.813 65.0613 1005.3 63.952C1011.87 62.7573 1019.08 62.16 1026.93 62.16ZM1027.06 102.864C1024.07 102.864 1021.51 103.205 1019.38 103.888C1017.33 104.485 1015.67 105.339 1014.39 106.448C1013.19 107.472 1012.3 108.667 1011.7 110.032C1011.19 111.312 1010.93 112.635 1010.93 114C1010.93 115.792 1011.44 117.541 1012.47 119.248C1013.49 120.955 1015.2 122.363 1017.59 123.472C1019.98 124.581 1023.13 125.136 1027.06 125.136C1029.36 125.136 1031.37 124.923 1033.07 124.496C1034.87 124.069 1036.36 123.515 1037.55 122.832C1038.83 122.064 1039.86 121.211 1040.63 120.272C1041.48 119.248 1042.08 118.224 1042.42 117.2C1042.76 116.091 1042.93 114.981 1042.93 113.872C1042.93 112.592 1042.63 111.312 1042.03 110.032C1041.52 108.752 1040.67 107.6 1039.47 106.576C1038.28 105.467 1036.66 104.571 1034.61 103.888C1032.56 103.205 1030.04 102.864 1027.06 102.864ZM1154.31 124.112C1154.31 124.197 1154.31 124.283 1154.31 124.368C1154.39 124.368 1154.48 124.368 1154.56 124.368H1204.48V162H1101.19C1101.19 156.709 1101.19 151.419 1101.19 146.128C1101.19 140.837 1101.19 135.547 1101.19 130.256C1101.19 124.88 1101.19 119.547 1101.19 114.256C1101.19 108.965 1101.19 103.675 1101.19 98.384C1101.19 93.008 1101.19 87.632 1101.19 82.256C1101.19 76.7947 1101.19 71.376 1101.19 66H1154.31C1154.31 70.864 1154.31 75.728 1154.31 80.592C1154.31 85.3707 1154.31 90.192 1154.31 95.056C1154.31 99.92 1154.31 104.784 1154.31 109.648C1154.31 114.427 1154.31 119.248 1154.31 124.112ZM1208.69 162C1208.69 155.856 1208.69 149.712 1208.69 143.568C1208.69 137.424 1208.69 131.28 1208.69 125.136C1208.69 118.992 1208.69 112.848 1208.69 106.704C1208.69 100.56 1208.69 94.416 1208.69 88.272C1208.69 84.5173 1208.69 80.8053 1208.69 77.136C1208.69 73.3813 1208.69 69.6693 1208.69 66H1261.81C1261.81 74.2773 1261.81 82.5547 1261.81 90.832C1261.81 99.024 1261.81 107.259 1261.81 115.536C1261.81 120.656 1261.81 125.819 1261.81 131.024C1261.81 136.144 1261.81 141.307 1261.81 146.512C1261.81 151.632 1261.81 156.795 1261.81 162H1208.69ZM1336.06 62.16C1351.76 62.16 1364.81 64.3787 1375.22 68.816C1385.63 73.2533 1393.44 79.3547 1398.65 87.12C1403.85 94.8853 1406.46 103.803 1406.46 113.872C1406.46 119.333 1405.64 124.624 1404.02 129.744C1402.4 134.779 1399.84 139.515 1396.34 143.952C1392.84 148.304 1388.32 152.144 1382.78 155.472C1377.23 158.715 1370.57 161.232 1362.81 163.024C1355.13 164.901 1346.21 165.84 1336.06 165.84C1328.8 165.84 1322.15 165.328 1316.09 164.304C1310.11 163.365 1304.7 162.043 1299.83 160.336C1294.97 158.544 1290.66 156.411 1286.9 153.936C1283.23 151.461 1280.03 148.731 1277.3 145.744C1274.66 142.672 1272.44 139.429 1270.65 136.016C1268.94 132.603 1267.66 129.019 1266.81 125.264C1266.04 121.509 1265.66 117.712 1265.66 113.872C1265.66 108.837 1266.3 104.059 1267.58 99.536C1268.94 95.0133 1270.9 90.832 1273.46 86.992C1276.11 83.152 1279.35 79.7387 1283.19 76.752C1287.12 73.68 1291.68 71.0773 1296.89 68.944C1302.09 66.7253 1307.94 65.0613 1314.42 63.952C1320.99 62.7573 1328.2 62.16 1336.06 62.16ZM1336.18 102.864C1333.2 102.864 1330.64 103.205 1328.5 103.888C1326.46 104.485 1324.79 105.339 1323.51 106.448C1322.32 107.472 1321.42 108.667 1320.82 110.032C1320.31 111.312 1320.06 112.635 1320.06 114C1320.06 115.792 1320.57 117.541 1321.59 119.248C1322.62 120.955 1324.32 122.363 1326.71 123.472C1329.1 124.581 1332.26 125.136 1336.18 125.136C1338.49 125.136 1340.49 124.923 1342.2 124.496C1343.99 124.069 1345.48 123.515 1346.68 122.832C1347.96 122.064 1348.98 121.211 1349.75 120.272C1350.6 119.248 1351.2 118.224 1351.54 117.2C1351.88 116.091 1352.06 114.981 1352.06 113.872C1352.06 112.592 1351.76 111.312 1351.16 110.032C1350.65 108.752 1349.79 107.6 1348.6 106.576C1347.4 105.467 1345.78 104.571 1343.74 103.888C1341.69 103.205 1339.17 102.864 1336.18 102.864Z" fill="#E43033"/>
</svg>
