<?xml version="1.0" encoding="UTF-8"?>
<svg id="Layer_2" data-name="Layer 2" xmlns="http://www.w3.org/2000/svg" viewBox="0 0 2401.14 1249.23">
  <defs>
    <style>
      .cls-1 {
        fill: #ed2024;
      }

      .cls-2 {
        opacity: .4;
      }
    </style>
  </defs>
  <g id="Layer_1-2" data-name="Layer 1">
    <g>
      <g class="cls-2">
        <path class="cls-1" d="M2400.89,348.03v484.61s-29.12,173.08-220.2,121.85-110.77-342.27-396-282.6c-285.23,59.68-195.23,289.52-426.46,235.52s-200.77-397.38-360-321.23c-159.23,76.16-77.54,452.77-304.62,318.46-227.07-134.3-189.69-450-326.76-357.23-137.08,92.77,33.23,220.16-177.24,252C-20.85,831.26.89,824.34.89,824.34l.1-335.08s134.62-144,299.39-155.08c164.77-11.08,113.54,106.62,263.08,76.16,149.54-30.47,177.23-242.31,360-109.39,182.77,132.92,299.08,346.15,445.85,185.54,146.77-160.62,207.69-309.76,398.77-228.96,191.07,80.81,234,438.04,415.38,264.96,181.39-173.08,217.43-174.46,217.43-174.46Z"/>
      </g>
      <g class="cls-2">
        <path class="cls-1" d="M2400.89,189.37v484.61s-29.12,173.08-220.2,121.85-110.77-342.27-396-282.6c-285.23,59.68-195.23,289.52-426.46,235.52s-200.77-397.38-360-321.23c-159.23,76.16-77.54,452.77-304.62,318.46-227.07-134.3-189.69-450-326.76-357.23-137.08,92.77,33.23,220.16-177.24,252C-20.85,672.6.89,665.68.89,665.68l.1-335.08s134.62-144,299.39-155.08c164.77-11.08,113.54,106.62,263.08,76.16,149.54-30.47,177.23-242.31,360-109.39,182.77,132.92,299.08,346.15,445.85,185.54,146.77-160.62,207.69-309.76,398.77-228.96,191.07,80.81,234,438.04,415.38,264.96,181.39-173.08,217.43-174.46,217.43-174.46Z"/>
      </g>
      <g class="cls-2">
        <path class="cls-1" d="M2400.89,423.74v484.61s-29.12,173.08-220.2,121.85-110.77-342.27-396-282.6c-285.23,59.68-195.23,289.52-426.46,235.52s-200.77-397.38-360-321.23c-159.23,76.16-77.54,452.77-304.62,318.46-227.07-134.3-189.69-450-326.76-357.23-137.08,92.77,33.23,220.16-177.24,252C-20.85,906.97.89,900.05.89,900.05l.1-335.08s134.62-144,299.39-155.08c164.77-11.08,113.54,106.62,263.08,76.16,149.54-30.47,177.23-242.31,360-109.39,182.77,132.92,299.08,346.15,445.85,185.54,146.77-160.62,207.69-309.76,398.77-228.96,191.07,80.81,234,438.04,415.38,264.96,181.39-173.08,217.43-174.46,217.43-174.46Z"/>
      </g>
      <g class="cls-2">
        <path class="cls-1" d="M2400.89,268.49v484.61s-29.12,173.08-220.2,121.85-110.77-342.27-396-282.6c-285.23,59.68-195.23,289.52-426.46,235.52s-200.77-397.38-360-321.23c-159.23,76.16-77.54,452.77-304.62,318.46-227.07-134.3-189.69-450-326.76-357.23-137.08,92.77,33.23,220.16-177.24,252C-20.85,751.72.89,744.8.89,744.8l.1-335.08s134.62-144,299.39-155.08c164.77-11.08,113.54,106.62,263.08,76.16,149.54-30.47,177.23-242.31,360-109.39,182.77,132.92,299.08,346.15,445.85,185.54,146.77-160.62,207.69-309.76,398.77-228.96,191.07,80.81,234,438.04,415.38,264.96,181.39-173.08,217.43-174.46,217.43-174.46Z"/>
      </g>
      <g class="cls-2">
        <path class="cls-1" d="M2400.89,113.41v484.61s-29.12,173.08-220.2,121.85-110.77-342.27-396-282.6c-285.23,59.68-195.23,289.52-426.46,235.52s-200.77-397.38-360-321.23c-159.23,76.16-77.54,452.77-304.62,318.46-227.07-134.3-189.69-450-326.76-357.23-137.08,92.77,33.23,220.16-177.24,252C-20.85,596.64.89,589.72.89,589.72l.1-335.08S135.61,110.64,300.38,99.56c164.77-11.08,113.54,106.62,263.08,76.16,149.54-30.47,177.23-242.31,360-109.39,182.77,132.92,299.08,346.15,445.85,185.54,146.77-160.62,207.69-309.76,398.77-228.96,191.07,80.81,234,438.04,415.38,264.96,181.39-173.08,217.43-174.46,217.43-174.46Z"/>
      </g>
      <g class="cls-2">
        <path class="cls-1" d="M2400.89,489.04v484.61s-29.12,173.08-220.2,121.85-110.77-342.27-396-282.6c-285.23,59.68-195.23,289.52-426.46,235.52s-200.77-397.38-360-321.23c-159.23,76.16-77.54,452.77-304.62,318.46-227.07-134.3-189.69-450-326.76-357.23-137.08,92.77,33.23,220.16-177.24,252C-20.85,972.27.89,965.35.89,965.35l.1-335.08s134.62-144,299.39-155.08c164.77-11.08,113.54,106.62,263.08,76.16,149.54-30.47,177.23-242.31,360-109.39,182.77,132.92,299.08,346.15,445.85,185.54,146.77-160.62,207.69-309.76,398.77-228.96,191.07,80.81,234,438.04,415.38,264.96,181.39-173.08,217.43-174.46,217.43-174.46Z"/>
      </g>
      <g class="cls-2">
        <path class="cls-1" d="M998.23,792.07c-159.24,76.15-77.54,452.76-304.62,318.46-227.08-134.31-189.69-450-326.77-357.23-137.08,92.77,33.23,220.15-177.23,252C-20.85,1037.14.88,1030.22.88,1030.22l.1-335.08s134.63-144,299.4-155.07c164.77-11.08,113.54,106.61,263.08,76.15,149.53-30.46,177.23-242.31,360-109.39,182.77,132.93,299.07,346.16,445.84,185.54,146.77-160.61,207.69-309.76,398.77-228.96,191.08,80.81,234,438.04,415.39,264.96,181.38-173.07,217.42-174.46,217.42-174.46v484.62s-29.12,173.07-220.19,121.84c-191.08-51.23-110.77-342.27-396-282.6-285.23,59.68-195.23,289.53-426.46,235.53-231.24-54-200.77-397.39-360-321.23Z"/>
      </g>
      <g class="cls-2">
        <path class="cls-1" d="M923.46,585.95c182.77,132.93,299.07,346.16,445.84,185.54,146.77-160.61,207.69-309.76,398.77-228.96,191.08,80.81,234,438.04,415.39,264.96,181.38-173.07,217.42-174.46,217.42-174.46v484.62s-29.12,173.07-220.19,121.84c-191.08-51.23-110.77-342.27-396-282.6-285.23,59.68-195.23,289.53-426.46,235.53-231.24-54-200.77-397.39-360-321.23-159.24,76.15-77.54,452.76-304.62,318.46-227.08-134.31-189.69-450-326.77-357.23-137.08,92.77,33.23,220.15-177.23,252C-20.85,1116.26.88,1109.34.88,1109.34l.1-335.08s134.63-144,299.4-155.07c164.77-11.08,113.54,106.61,263.08,76.15,149.53-30.46,177.23-242.31,360-109.39Z"/>
      </g>
      <g>
        <path d="M325.07,245.37c-5.41-12.14-12.24-21.78-20.5-28.89-8.26-7.12-17.92-10.68-28.97-10.68h-112.84v314.08h74.16v-52.77c0-.27.03-.42.09-.42s.15-.14.27-.42h38.33c10.81,0,20.32-3.56,28.52-10.68,8.2-7.12,15.06-16.82,20.59-29.1,5.53-12.28,9.68-26.31,12.48-42.09,2.79-15.77,4.19-32.45,4.19-50.04,0-16.47-1.37-32.38-4.1-47.74-2.74-15.35-6.8-29.1-12.21-41.25ZM268.12,359.7c-1.19,4.61-3,8.38-5.44,11.31-2.44,2.93-5.44,4.4-9,4.4h-16.4c-.12-.28-.24-.42-.36-.42v-57.37c0-.27.03-.48.09-.63.06-.14.15-.21.27-.21h16.4c3.68,0,6.71,1.4,9.09,4.19,2.38,2.79,4.16,6.35,5.35,10.68,1.19,4.33,1.78,9,1.78,14.03,0,4.75-.6,9.42-1.78,14.03Z"/>
        <path d="M497.18,215.01c-14.5-14.51-32.68-21.78-54.55-21.78-10.94,0-20.95,1.88-30.04,5.65-9.09,3.77-17.26,9.21-24.51,16.33-7.25,7.12-13.58,15.64-18.98,25.54-5.41,9.91-9.92,21.15-13.55,33.71-3.63,12.56-6.36,26.25-8.2,41.04-1.84,14.8-2.76,30.43-2.76,46.9,0,12.56.56,24.99,1.69,37.27,1.13,12.29,2.91,24.01,5.35,35.18,2.43,11.17,5.53,21.71,9.27,31.62,3.74,9.91,8.2,18.92,13.37,27.01,5.17,8.1,11.14,15.01,17.92,20.73,6.77,5.72,14.35,10.19,22.73,13.4,8.38,3.21,17.62,4.82,27.72,4.82,14.14,0,26.59-3,37.35-9,10.75-6,19.99-14.38,27.72-25.13,7.72-10.74,14.02-23.31,18.9-37.69,4.87-14.38,8.44-29.87,10.7-46.48,2.26-16.61,3.39-33.85,3.39-51.72,0-32.94-3.63-62.12-10.87-87.52-7.25-25.4-18.12-45.36-32.62-59.88ZM464.2,373.1c-.48,3.49-1.28,6.84-2.41,10.05-1.13,3.21-2.56,6.01-4.28,8.38-1.72,2.38-3.8,4.26-6.24,5.65-2.44,1.4-5.26,2.09-8.47,2.09-5.47,0-9.87-1.81-13.19-5.44-3.33-3.62-5.7-8.23-7.13-13.82-1.43-5.58-2.14-11.31-2.14-17.17,0-4.46.38-8.86,1.16-13.19.77-4.33,2.02-8.23,3.74-11.73,1.72-3.49,4.04-6.28,6.95-8.38,2.91-2.09,6.44-3.14,10.61-3.14s7.67,1.12,10.52,3.35c2.85,2.24,5.11,5.1,6.77,8.58,1.66,3.49,2.88,7.33,3.65,11.52.77,4.19,1.16,8.38,1.16,12.56,0,3.63-.24,7.19-.71,10.68Z"/>
        <path d="M657.61,395.5v-1.67h13.19c11.29,0,20.71-4.74,28.25-14.24,7.54-9.49,13.19-21.7,16.93-36.64,3.74-14.93,5.61-30.36,5.61-46.27s-1.72-29.94-5.17-43.76c-3.45-13.82-8.62-25.13-15.51-33.92-6.89-8.79-15.57-13.19-26.03-13.19h-128.88v314.08h73.98v-185.93c0-.27.03-.42.09-.42s.15-.14.27-.42h20.32c3.21,0,5.88,1.4,8.02,4.19,2.14,2.79,3.74,6.43,4.81,10.89,1.07,4.47,1.6,9.21,1.6,14.24,0,3.63-.3,7.19-.89,10.68-.6,3.49-1.49,6.63-2.67,9.42-1.19,2.79-2.7,5.02-4.55,6.7-1.84,1.67-3.95,2.51-6.33,2.51h-20.68c2.38,14.24,4.72,28.48,7.04,42.71l6.95,42.71c2.32,14.24,4.6,28.48,6.86,42.71h84.67l-27.45-124.38h-40.46Z"/>
        <path d="M728.38,333.11h42.96c.12,0,.21.07.27.21.06.14.09.35.09.63v185.93h73.98v-185.93c0-.27.03-.42.09-.42s.15-.14.27-.42h42.96v-127.31h-160.61v127.31Z"/>
        <path d="M1436.2,606.17v278.26h79.45v-66.76h78.3v-100.57h-78.3v-25.35h81.17v-124.23h-160.62v38.66Z"/>
        <path d="M1765.27,576.8c-15.54-14.64-35.02-21.97-58.44-21.97-11.72,0-22.44,1.9-32.18,5.7-9.74,3.8-18.5,9.3-26.26,16.48-7.77,7.18-14.55,15.78-20.34,25.78-5.8,10-10.63,21.34-14.52,34.02-3.88,12.68-6.81,26.48-8.79,41.41-1.98,14.93-2.96,30.71-2.96,47.33,0,12.68.6,25.21,1.81,37.61,1.21,12.4,3.12,24.23,5.73,35.5,2.61,11.27,5.92,21.91,9.93,31.9,4.01,10,8.79,19.09,14.32,27.25,5.54,8.17,11.94,15.15,19.19,20.92,7.26,5.77,15.38,10.28,24.35,13.52,8.98,3.24,18.88,4.86,29.7,4.86,15.15,0,28.49-3.03,40.01-9.08,11.52-6.05,21.42-14.51,29.7-25.35,8.28-10.84,15.02-23.52,20.24-38.03,5.22-14.51,9.04-30.14,11.46-46.9,2.42-16.76,3.63-34.15,3.63-52.19,0-33.24-3.89-62.68-11.65-88.31-7.77-25.63-19.42-45.78-34.95-60.43ZM1729.94,736.32c-.51,3.53-1.37,6.91-2.58,10.14-1.21,3.24-2.74,6.06-4.58,8.45-1.85,2.4-4.08,4.3-6.68,5.71-2.61,1.41-5.63,2.11-9.07,2.11-5.86,0-10.57-1.83-14.13-5.49-3.57-3.66-6.11-8.31-7.64-13.94-1.53-5.63-2.29-11.41-2.29-17.33,0-4.5.41-8.94,1.24-13.31.83-4.36,2.16-8.31,4.01-11.83,1.84-3.52,4.33-6.34,7.45-8.45,3.12-2.11,6.91-3.17,11.36-3.17s8.21,1.13,11.27,3.38c3.06,2.26,5.47,5.14,7.26,8.66,1.78,3.53,3.08,7.39,3.92,11.62.83,4.23,1.24,8.45,1.24,12.68,0,3.67-.26,7.26-.76,10.78Z"/>
        <path d="M1896.96,759.98c-.07-.14-.1-.35-.1-.63v-191.84h-79.26v316.92h154.13v-124.23h-74.49c-.13,0-.22-.07-.29-.21Z"/>
        <path d="M1978.03,604.06v280.37h79.26v-316.92h-79.26v36.55Z"/>
        <path d="M2261.46,637.23c-7.77-25.63-19.42-45.78-34.95-60.43-15.54-14.64-35.02-21.97-58.44-21.97-11.72,0-22.44,1.9-32.18,5.7-9.74,3.8-18.5,9.3-26.26,16.48-7.77,7.18-14.55,15.78-20.34,25.78-5.79,10-10.63,21.34-14.51,34.02-3.89,12.68-6.81,26.48-8.79,41.41-1.98,14.93-2.96,30.71-2.96,47.33,0,12.68.6,25.21,1.81,37.61,1.21,12.4,3.12,24.23,5.73,35.5,2.61,11.27,5.92,21.91,9.93,31.9,4.01,10,8.79,19.09,14.32,27.25,5.54,8.17,11.94,15.15,19.19,20.92s15.38,10.28,24.35,13.52c8.98,3.24,18.88,4.86,29.7,4.86,15.15,0,28.49-3.03,40.01-9.08,11.52-6.05,21.42-14.51,29.7-25.35,8.28-10.84,15.02-23.52,20.25-38.03,5.22-14.51,9.04-30.14,11.46-46.9,2.42-16.76,3.63-34.15,3.63-52.19,0-33.24-3.89-62.68-11.65-88.31ZM2191.17,736.32c-.51,3.53-1.37,6.91-2.58,10.14-1.21,3.24-2.74,6.06-4.58,8.45-1.85,2.4-4.08,4.3-6.68,5.71-2.61,1.41-5.63,2.11-9.07,2.11-5.86,0-10.57-1.83-14.13-5.49-3.57-3.66-6.11-8.31-7.64-13.94-1.53-5.63-2.29-11.41-2.29-17.33,0-4.5.41-8.94,1.24-13.31.83-4.36,2.16-8.31,4.01-11.83,1.84-3.52,4.33-6.34,7.45-8.45,3.12-2.11,6.91-3.17,11.36-3.17s8.21,1.13,11.27,3.38c3.06,2.26,5.47,5.14,7.26,8.66,1.78,3.53,3.09,7.39,3.92,11.62.83,4.23,1.24,8.45,1.24,12.68,0,3.67-.26,7.26-.76,10.78Z"/>
      </g>
      <g>
        <path d="M1137.64,599.3h-13.49v-33.98c0-2.73.29-5.08.87-7.03.58-1.95,1.28-2.93,2.09-2.93h9.01v-23.96h-10.59c-.42,0-.78-.48-1.06-1.44-.28-.96-.42-2.12-.42-3.49s.14-2.53.42-3.49c.28-.96.64-1.44,1.06-1.44h10.59c.82,0,1.53.97,2.12,2.9.59,1.93.88,4.25.88,6.94v23.96c0,2.77-.29,5.13-.88,7.06-.59,1.93-1.3,2.9-2.12,2.9h-9.01v24.14h10.52c.4,0,.75.48,1.04,1.44.29.96.44,2.12.44,3.49s-.15,2.53-.44,3.49c-.29.96-.64,1.44-1.04,1.44Z"/>
        <path d="M1145.96,589.81v-58.89c0-2.58.28-4.8.85-6.68s1.24-2.81,2.01-2.81h9.25c.77,0,1.43.94,1.99,2.81s.84,4.1.84,6.68v58.89c0,2.62-.28,4.85-.84,6.71-.56,1.86-1.23,2.78-2.02,2.78h-9.22c-.8,0-1.48-.93-2.03-2.78-.55-1.85-.83-4.09-.83-6.71ZM1157.96,589.46v-58.07h-9.04v58.07h9.04Z"/>
        <path d="M1181.32,599.3h-13.49v-33.98c0-2.73.29-5.08.87-7.03.58-1.95,1.28-2.93,2.09-2.93h9.01v-23.96h-10.59c-.42,0-.78-.48-1.06-1.44-.28-.96-.42-2.12-.42-3.49s.14-2.53.42-3.49c.28-.96.64-1.44,1.06-1.44h10.59c.82,0,1.53.97,2.12,2.9.59,1.93.88,4.25.88,6.94v23.96c0,2.77-.29,5.13-.88,7.06-.59,1.93-1.3,2.9-2.12,2.9h-9.01v24.14h10.52c.4,0,.75.48,1.04,1.44.29.96.44,2.12.44,3.49s-.15,2.53-.44,3.49c-.29.96-.64,1.44-1.04,1.44Z"/>
        <path d="M1191.23,521.55h1.48c.41,0,.76.49,1.05,1.46.29.98.43,2.13.43,3.46s-.14,2.53-.43,3.49c-.29.96-.64,1.44-1.05,1.44v32.52h10.45c.4,0,.75.5,1.04,1.49.29,1,.44,2.18.44,3.54v25.43c0,1.37-.15,2.53-.45,3.49-.3.96-.66,1.44-1.07,1.44h-11.9c-.41,0-.77-.49-1.07-1.46-.3-.98-.45-2.13-.45-3.46v-67.91c0-1.37.15-2.53.44-3.49.29-.96.65-1.44,1.08-1.44ZM1192.68,573.87v15.59h8.97v-15.59h-8.97Z"/>
      </g>
    </g>
  </g>
</svg>